<?xml version="1.0" encoding="UTF-8" standalone="no"?>
<svg width="201px" height="45px" viewBox="0 0 199 45" version="1.1" xmlns="http://www.w3.org/2000/svg" xmlns:xlink="http://www.w3.org/1999/xlink">
  <!-- Generator: Sketch 45.1 (43504) - http://www.bohemiancoding.com/sketch -->
  <title>Navigation</title>
  <desc>Created with Sketch.</desc>
  <defs>
    <rect id="path-1" x="0" y="0" width="200" height="48"></rect>
    <polygon id="path-3" points="0.020499343 325.76429 0.020499343 0.200604699 123.347963 0.200604699 246.675427 0.200604699 246.675427 325.76429 0.020499343 325.76429"></polygon>
  </defs>
  <g id="Designs" stroke="none" stroke-width="1" fill="none" fill-rule="evenodd">
    <g id="04-Navigation-Menu-Hover" transform="translate(-120.000000, -30.000000)">
      <g id="Navigation" transform="translate(120.000000, 30.000000)">
        <g id="Kasowitz_logo_final">
          <mask id="mask-2" fill="white">
            <use xlink:href="#path-1"></use>
          </mask>
          <g id="Mask"></g>
          <g mask="url(#mask-2)">
            <g transform="translate(-19.000000, -92.000000)">
              <path d="M79.8545072,109.714735 C80.3833903,110.41924 81.025703,110.997514 81.7817871,111.45058 C82.5371879,111.903305 83.3810775,112.129839 84.313456,112.129839 C85.2202102,112.129839 85.9318791,112.023054 86.4488042,111.809144 C86.9643627,111.595575 87.2233377,111.27488 87.2233377,110.846719 C87.2233377,110.595622 87.1666229,110.37523 87.0531932,110.186566 C86.9397635,109.997902 86.7255453,109.81572 86.4108804,109.639338 C86.0951905,109.463297 85.6483049,109.274974 85.0691984,109.073346 C84.4894087,108.872059 83.7463075,108.645867 82.8395532,108.394088 C81.504021,108.042006 80.3078844,107.645573 79.2497766,107.20513 C78.1913272,106.765369 77.2903811,106.230764 76.5476216,105.601657 C75.8041787,104.972891 75.2373719,104.230858 74.8468594,103.375218 C74.4560053,102.520259 74.2616032,101.488237 74.2616032,100.280856 C74.2616032,99.04857 74.5004205,97.9288682 74.9794218,96.9224331 C75.4577398,95.9163391 76.1441261,95.0610398 77.0389225,94.3565352 C77.9330355,93.6523718 79.0225756,93.111285 80.3078844,92.7336159 C81.5925099,92.356288 83.0284888,92.1679653 84.6158213,92.1679653 C86.8830486,92.1679653 88.7539553,92.4572727 90.2278581,93.0355465 C91.7014192,93.6145026 92.9293298,94.3940633 93.9119317,95.3752523 C94.3400263,95.8034137 94.7052562,96.2431747 95.0079632,96.6962411 L88.9613403,100.544917 C88.8106702,100.29382 88.60841,100.035559 88.3569514,99.7714974 C88.1048095,99.5074362 87.8024442,99.2621389 87.4501971,99.0356057 C87.0965834,98.8090725 86.6876216,98.6204086 86.2216032,98.4696139 C85.7552431,98.318478 85.2451511,98.2430807 84.6909855,98.2430807 C83.7842313,98.2430807 83.1231275,98.3563473 82.7073325,98.5828805 C82.2918791,98.8090725 82.0838108,99.1110031 82.0838108,99.4886721 C82.0838108,99.7148641 82.1340342,99.9222921 82.2351643,100.110956 C82.3352694,100.29962 82.5621288,100.488625 82.9150591,100.676948 C83.2673062,100.865612 83.7777398,101.06724 84.4456767,101.280809 C85.1125887,101.494719 86.0005519,101.740016 87.109908,102.016701 C88.1680158,102.26848 89.1820499,102.582693 90.1520105,102.96002 C91.1216294,103.337348 91.978502,103.840907 92.7212615,104.469673 C93.4647043,105.098439 94.0499606,105.8722 94.4790802,106.790274 C94.9071748,107.708688 95.1210512,108.846813 95.1210512,110.204989 C95.1210512,111.614339 94.8313272,112.827861 94.2518791,113.846919 C93.6720894,114.865636 92.8917477,115.708654 91.9091459,116.374948 C90.926544,117.041924 89.793272,117.539001 88.5079632,117.865495 C87.2233377,118.19199 85.8751643,118.35609 84.4644678,118.35609 C82.171958,118.35609 80.2761104,118.097828 78.7772668,117.582329 C77.2780815,117.067171 76.0245466,116.331279 75.0173456,115.374995 C74.5130618,114.872118 74.0091196,114.230388 73.5055191,113.450827 L79.8545072,109.714735" id="Fill-6" fill="#1A1919"></path>
              <polyline id="Fill-7" fill="#1A1919" points="131.705204 117.827967 124.828016 92.6585598 133.065677 92.6585598 135.824205 104.054135 138.847858 92.6585598 144.818292 92.6585598 147.804021 104.054135 150.638055 92.6585598 158.838476 92.6585598 151.960946 117.827967 145.385099 117.827967 141.795664 105.18646 138.318633 117.827967 131.705204 117.827967"></polyline>
              <polygon id="Fill-8" fill="#1A1919" points="161.282339 117.827967 169.407254 117.827967 169.407254 92.6585598 161.282339 92.6585598"></polygon>
              <polyline id="Fill-9" fill="#1A1919" points="179.197057 117.827967 179.197057 99.4508029 172.546386 99.4508029 172.546386 92.6585598 193.972983 92.6585598 193.972983 99.4508029 187.359895 99.4508029 187.359895 117.827967 179.197057 117.827967"></polyline>
              <path d="M56.9089093,108.205424 L61.443364,108.205424 L59.1761367,101.035512 L56.9089093,108.205424 Z M45.6851774,117.827967 L55.0571353,92.6585598 L63.5595795,92.6585598 L72.8936137,117.827967 L64.239816,117.827967 L62.9172668,114.092217 L55.5105125,114.092217 L54.1879632,117.827967 L45.6851774,117.827967 L45.6851774,117.827967 Z" id="Fill-10" fill="#1A1919"></path>
              <polyline id="Fill-11" fill="#1A1919" points="31.4405256 92.6462778 19.5826807 92.6462778 19.5826807 106.962221 31.4405256 92.6462778"></polyline>
              <polyline id="Fill-12" fill="#1A1919" points="30.6745335 110.884588 34.4334297 117.842979 44.3445204 117.842979 36.0815769 104.357089 30.6745335 110.884588"></polyline>
              <polyline id="Fill-13" fill="#1A1919" points="35.796636 92.6452543 19.5826807 112.219906 19.5826807 117.842979 24.9111432 117.842979 45.7825493 92.6452543 35.796636 92.6452543"></polyline>
              <polyline id="Fill-14" fill="#1A1919" points="217.431064 92.6585598 196.87364 92.6585598 196.87364 99.4508029 207.00134 99.4508029 196.382339 112.280633 196.382339 117.827967 201.2277 117.827967 217.431064 98.2652564 217.431064 92.6585598"></polyline>
              <polyline id="Fill-15" fill="#1A1919" points="200.764392 117.827967 200.750749 117.843891 200.785442 117.843891 200.798695 117.827967 200.764392 117.827967"></polyline>
              <path d="M24.0901445,131.391984 L22.7286465,131.391984 L22.7286465,134.374443 L24.0084888,134.374443 C25.491958,134.374443 26.1421288,133.867473 26.1421288,132.791781 C26.1421288,131.899295 25.4509593,131.391984 24.0901445,131.391984 Z M23.5821025,126.056172 L22.7289882,126.056172 L22.7289882,128.876237 L23.9883311,128.876237 C24.679159,128.876237 25.2886728,128.227001 25.2886728,127.496909 C25.2886728,126.705408 24.7403154,126.056172 23.5821025,126.056172 Z M24.4553745,136.89019 L19.6199212,136.89019 L19.6199212,123.520296 L24.2121156,123.520296 C26.9549277,123.520296 28.3160841,125.224754 28.3160841,126.9084 C28.3160841,127.923023 27.808042,128.998033 26.7922996,129.566072 L26.7922996,129.586541 C28.4175558,130.032784 29.2505125,131.351726 29.2505125,132.812592 C29.2505125,134.780429 27.6655716,136.890531 24.4553745,136.89019 L24.4553745,136.89019 Z" id="Fill-16" fill="#1A1919"></path>
              <polyline id="Fill-17" fill="#1A1919" points="34.9544547 136.890531 34.9544547 123.520296 43.0004468 123.520637 42.2484625 126.015914 38.06318 126.015914 38.06318 128.81551 42.2686202 128.81551 42.2686202 131.331598 38.06318 131.331598 38.06318 134.395254 42.9597898 134.395254 42.9594481 136.890531 34.9544547 136.890531"></polyline>
              <path d="M58.8484888,136.890872 L53.2815506,129.850603 C52.8548226,129.303034 52.4687516,128.775252 52.021866,128.186744 L51.9812089,128.186744 C52.0423653,128.633328 52.0423653,129.525814 52.0423653,130.093853 L52.0420237,136.890531 L48.9537976,136.890531 L48.9541393,123.520637 L52.062523,123.520637 L57.4470171,130.276376 C57.8734034,130.824286 58.2594744,131.331598 58.6455453,131.899636 L58.6862024,131.899636 C58.6455453,131.210143 58.6455453,130.236118 58.6455453,129.708337 L58.645887,123.520637 L61.7337714,123.520637 L61.7337714,136.890872 L58.8484888,136.890872" id="Fill-18" fill="#1A1919"></path>
              <path d="M71.8498555,137.093865 C69.8586859,137.093865 68.4363732,136.444288 67.4202891,135.774923 L68.5990013,133.563495 C69.4931143,134.172133 70.5088568,134.638505 71.6872273,134.638505 C72.6018397,134.638505 73.6175821,134.314057 73.6175821,133.401101 C73.6175821,131.798311 70.3465703,131.534932 68.7411301,129.66808 C68.2334297,129.079571 67.9081735,128.329009 67.9081735,127.294257 C67.9081735,125.245224 69.553929,123.378713 72.6219974,123.378713 C74.0443101,123.378713 75.2838371,123.7441 76.1167937,124.210813 L76.0556373,126.807416 C74.816452,126.17865 73.9021813,125.813263 72.8047832,125.813263 C71.8703548,125.813263 71.2000263,126.239377 71.2000263,126.888954 C71.2000263,129.019185 76.9090933,128.775252 76.9090933,133.015926 C76.9087516,135.551802 74.6534823,137.093865 71.8498555,137.093865" id="Fill-19" fill="#1A1919"></path>
              <path d="M88.858502,125.853861 C86.745703,125.853861 85.1204468,127.436523 85.1201051,130.25693 C85.1201051,133.076654 86.7453614,134.659316 88.858502,134.659316 C90.9309855,134.659316 92.5565834,133.076654 92.5565834,130.25693 C92.5565834,127.436523 90.9309855,125.853861 88.858502,125.853861 Z M94.0192116,135.044831 C92.7595269,136.322834 91.011958,137.094206 88.8786597,137.094206 C86.8471748,137.094206 85.2219185,136.525826 84.022707,135.470605 C82.6410512,134.233201 81.8894087,132.427418 81.8894087,130.378384 C81.8894087,128.410206 82.5805782,126.645363 83.8402628,125.367019 C85.0592904,124.129616 86.7863601,123.378713 88.8790013,123.378713 C91.114113,123.378713 92.9423127,124.129957 94.161682,125.428088 C95.2993955,126.645363 95.847753,128.309222 95.847753,130.175391 C95.847753,132.062713 95.2385808,133.827216 94.0192116,135.044831 L94.0192116,135.044831 Z" id="Fill-20" fill="#1A1919"></path>
              <path d="M111.60594,136.891213 L106.039001,129.850944 C105.612615,129.303375 105.226544,128.775593 104.779658,128.187426 L104.73866,128.187426 C104.799816,128.633669 104.799816,129.526496 104.799816,130.094535 L104.799816,136.891213 L101.711248,136.891213 L101.71159,123.520979 L104.819974,123.520979 L110.204468,130.277058 C110.630854,130.824968 111.016925,131.33228 111.403338,131.900319 L111.443653,131.900319 C111.403338,131.210484 111.403338,130.236801 111.403338,129.709019 L111.403338,123.520979 L114.491564,123.520979 L114.491222,136.891213 L111.60594,136.891213" id="Fill-21" fill="#1A1919"></path>
              <polyline id="Fill-22" fill="#1A1919" points="139.212063 126.016938 135.67661 126.016938 135.676268 136.891555 132.527569 136.891555 132.527569 126.016938 128.606045 126.016597 128.606045 123.520979 139.861892 123.52132 139.212063 126.016938"></polyline>
              <path d="M150.779501,125.854543 C148.66636,125.854543 147.041104,127.437205 147.041104,130.257612 C147.040762,133.077336 148.66636,134.659998 150.779159,134.659998 C152.851643,134.659998 154.47724,133.077336 154.47724,130.257612 C154.477582,127.437205 152.851984,125.854543 150.779501,125.854543 Z M155.939869,135.045514 C154.680184,136.323516 152.932615,137.094889 150.799317,137.094889 C148.767832,137.094889 147.142576,136.526509 145.943364,135.471287 C144.561708,134.233884 143.810066,132.4281 143.810066,130.379066 C143.810407,128.410889 144.501235,126.646045 145.76092,125.367702 C146.979947,124.130298 148.707017,123.379395 150.799658,123.379395 C153.03477,123.379395 154.863311,124.130639 156.082339,125.42877 C157.220053,126.646045 157.768752,128.309904 157.768752,130.176074 C157.768752,132.063054 157.158896,133.827898 155.939869,135.045514 L155.939869,135.045514 Z" id="Fill-23" fill="#1A1919"></path>
              <path d="M167.898844,126.057877 L166.740972,126.057877 L166.740972,129.669103 L167.878344,129.669103 C168.955585,129.669103 169.747884,128.857814 169.747884,127.761994 C169.747884,126.788311 169.016399,126.057877 167.898844,126.057877 Z M170.844941,136.891896 C168.833272,133.402125 168.122286,132.063395 167.675401,131.880531 L166.740972,131.880531 L166.740631,136.891896 L163.632247,136.891896 L163.632589,123.521661 L167.817871,123.521661 C171.495112,123.521661 172.795453,125.327444 172.795453,127.417077 C172.795453,129.121534 171.596583,130.29821 170.418213,130.845779 L170.418213,130.866249 C171.150039,131.292364 172.389225,133.483663 174.359553,136.891896 L170.844941,136.891896 L170.844941,136.891896 Z" id="Fill-24" fill="#1A1919"></path>
              <path d="M183.771827,126.057877 L182.613955,126.057877 L182.613614,129.669444 L183.751327,129.669444 C184.828568,129.669444 185.620526,128.857814 185.620867,127.761994 C185.620867,126.788652 184.889041,126.058219 183.771827,126.057877 Z M186.717582,136.892237 C184.706255,133.402466 183.995269,132.063395 183.548384,131.880531 L182.613614,131.880531 L182.613614,136.892237 L179.50523,136.891896 L179.50523,123.521661 L183.690854,123.521661 C187.368095,123.521661 188.668436,125.327785 188.668436,127.417077 C188.668436,129.121534 187.469566,130.298552 186.291196,130.846121 L186.291196,130.86659 C187.022681,131.292364 188.262208,133.483663 190.232536,136.892237 L186.717582,136.892237 L186.717582,136.892237 Z" id="Fill-25" fill="#1A1919"></path>
              <polyline id="Fill-26" fill="#1A1919" points="195.377871 136.892237 195.378213 123.522002 203.423522 123.522002 202.671879 126.01762 198.486597 126.01762 198.486597 128.817557 202.692378 128.817557 202.692378 131.333303 198.486597 131.333303 198.486597 134.396619 203.383206 134.396619 203.382865 136.892237 195.377871 136.892237"></polyline>
              <path d="M212.947516,137.095571 C210.956347,137.095571 209.534034,136.445994 208.518292,135.776288 L209.697004,133.565201 C210.590775,134.173497 211.606859,134.64021 212.784888,134.64021 C213.699501,134.64021 214.715243,134.315763 214.715243,133.402807 C214.715243,131.800016 211.444231,131.536296 209.839133,129.669785 C209.331091,129.080936 209.005834,128.330374 209.005834,127.295622 C209.005834,125.24693 210.651932,123.380078 213.719658,123.380078 C215.141971,123.380078 216.381498,123.745465 217.214796,124.212178 L217.153298,126.809122 C215.914113,126.179673 214.999842,125.814627 213.902444,125.814627 C212.968016,125.814627 212.297687,126.240742 212.297687,126.889978 C212.297687,129.02055 218.006754,128.776958 218.006754,133.017291 C218.006754,135.553166 215.751143,137.095571 212.947516,137.095571" id="Fill-27" fill="#1A1919"></path>
              <path d="M110.827306,111.21893 C107.771879,111.21893 105.294875,108.543518 105.294875,105.243093 C105.294875,101.942668 107.771879,99.2675975 110.827306,99.2675975 C113.883075,99.2675975 116.360079,101.942668 116.360079,105.243093 C116.360079,108.543518 113.883075,111.21893 110.827306,111.21893 Z M110.863522,92.138284 C103.095296,92.138284 97.0896715,97.9561614 97.0896715,105.246163 L97.0896715,105.318149 C97.0896715,112.60781 103.023548,118.354043 110.791432,118.354043 C118.559658,118.354043 124.565624,112.536165 124.565624,105.246163 L124.565624,105.174519 C124.565624,97.8841757 118.631406,92.138284 110.863522,92.138284 L110.863522,92.138284 Z" id="Fill-28" fill="#1A1919"></path>
              <polyline id="Fill-29" fill="#1A1919" points="205.585861 117.841955 217.431064 117.841955 217.431064 103.541023 205.585861 117.841955"></polyline>
              <g id="Group-71" stroke-width="1" fill="none">
                <mask id="mask-4" fill="white">
                  <use xlink:href="#path-3"></use>
                </mask>
                <g id="Clip-64"></g>
              </g>
            </g>
          </g>
        </g>
      </g>
    </g>
  </g>
</svg>